# Blender v3.0.0 OBJ File: ''
# www.blender.org
mtllib card.mtl
o Cube
v 1.500000 -2.253971 -0.045079
v 1.352382 -2.500000 -0.045079
v 1.492772 -2.330012 -0.045079
v 1.471818 -2.398559 -0.045079
v 1.492772 -2.253971 -0.046600
v 1.484213 -2.332468 -0.046641
v 1.464431 -2.395227 -0.046590
v 1.352382 -2.487954 -0.046600
v 1.398007 -2.487954 -0.045079
v 1.399217 -2.473688 -0.046649
v 1.439135 -2.453030 -0.045079
v 1.437211 -2.440544 -0.046594
v -1.500000 -2.253971 -0.045079
v -1.352383 -2.500000 -0.045079
v -1.492772 -2.253971 -0.046600
v -1.492772 -2.330012 -0.045079
v -1.484213 -2.332028 -0.046649
v -1.471818 -2.398559 -0.045079
v -1.464327 -2.395353 -0.046594
v -1.398007 -2.487954 -0.045079
v -1.439135 -2.453030 -0.045079
v -1.352382 -2.487954 -0.046600
v -1.399481 -2.473688 -0.046641
v -1.437136 -2.440719 -0.046590
v 1.352382 -2.500000 0.045079
v 1.500000 -2.253971 0.045079
v 1.398007 -2.487954 0.045079
v 1.439135 -2.453030 0.045079
v 1.352382 -2.487954 0.046600
v 1.399480 -2.473688 0.046641
v 1.437136 -2.440719 0.046590
v 1.492772 -2.253971 0.046600
v 1.492772 -2.330012 0.045079
v 1.484213 -2.332028 0.046649
v 1.471818 -2.398559 0.045079
v 1.464327 -2.395353 0.046594
v -1.352383 -2.500000 0.045079
v -1.500000 -2.253971 0.045079
v -1.352382 -2.487954 0.046600
v -1.398007 -2.487954 0.045079
v -1.399217 -2.473688 0.046649
v -1.439135 -2.453030 0.045079
v -1.437212 -2.440544 0.046594
v -1.492772 -2.330012 0.045079
v -1.471818 -2.398559 0.045079
v -1.492772 -2.253971 0.046600
v -1.484213 -2.332468 0.046641
v -1.464431 -2.395227 0.046590
v 1.352383 2.500000 -0.045079
v 1.500000 2.253971 -0.045079
v 1.398007 2.487954 -0.045079
v 1.439135 2.453030 -0.045079
v 1.352382 2.487954 -0.046600
v 1.399481 2.473688 -0.046641
v 1.437136 2.440719 -0.046590
v 1.492772 2.253971 -0.046600
v 1.492772 2.330012 -0.045079
v 1.484213 2.332028 -0.046649
v 1.471818 2.398559 -0.045079
v 1.464327 2.395353 -0.046594
v -1.352382 2.500000 -0.045079
v -1.500000 2.253971 -0.045079
v -1.352382 2.487954 -0.046600
v -1.398007 2.487954 -0.045079
v -1.399217 2.473688 -0.046649
v -1.439135 2.453030 -0.045079
v -1.437211 2.440544 -0.046594
v -1.492772 2.330012 -0.045079
v -1.471818 2.398559 -0.045079
v -1.492772 2.253971 -0.046600
v -1.484213 2.332468 -0.046641
v -1.464431 2.395227 -0.046590
v 1.352383 2.500000 0.045079
v 1.500000 2.253971 0.045079
v 1.352382 2.487954 0.046600
v 1.398007 2.487954 0.045079
v 1.399217 2.473688 0.046649
v 1.439135 2.453030 0.045079
v 1.437212 2.440544 0.046594
v 1.492772 2.330012 0.045079
v 1.471818 2.398559 0.045079
v 1.492772 2.253971 0.046600
v 1.484213 2.332468 0.046641
v 1.464431 2.395227 0.046590
v -1.500000 2.253971 0.045079
v -1.352382 2.500000 0.045079
v -1.492772 2.253971 0.046600
v -1.492772 2.330012 0.045079
v -1.484213 2.332028 0.046649
v -1.471818 2.398559 0.045079
v -1.464327 2.395353 0.046594
v -1.398007 2.487954 0.045079
v -1.439135 2.453030 0.045079
v -1.352382 2.487954 0.046600
v -1.399480 2.473688 0.046641
v -1.437136 2.440719 0.046590
vt 0.137301 0.512301
vt 0.362699 0.512301
vt 0.362699 0.737699
vt 0.137301 0.737698
vt 0.387301 0.012301
vt 0.612699 0.012301
vt 0.612698 0.237699
vt 0.387301 0.237699
vt 0.637301 0.512301
vt 0.862698 0.512301
vt 0.862699 0.737699
vt 0.637301 0.737698
vt 0.387301 0.512301
vt 0.612699 0.512301
vt 0.612698 0.737699
vt 0.387301 0.737698
vt 0.633499 0.512302
vt 0.633377 0.508399
vt 0.637302 0.508499
vt 0.630072 0.512301
vt 0.630239 0.508526
vt 0.625000 0.512301
vt 0.625000 0.508516
vt 0.612698 0.508499
vt 0.616601 0.508377
vt 0.616501 0.512302
vt 0.619768 0.508516
vt 0.619928 0.512302
vt 0.362698 0.508499
vt 0.366601 0.508377
vt 0.366501 0.512302
vt 0.369768 0.508516
vt 0.369928 0.512302
vt 0.383499 0.512302
vt 0.383377 0.508399
vt 0.387302 0.508499
vt 0.380072 0.512301
vt 0.380239 0.508526
vt 0.375000 0.512301
vt 0.375000 0.508516
vt 0.616501 0.737699
vt 0.616623 0.741601
vt 0.612698 0.741501
vt 0.619928 0.737698
vt 0.619761 0.741474
vt 0.625000 0.737698
vt 0.625000 0.741484
vt 0.637301 0.741501
vt 0.633399 0.741623
vt 0.633499 0.737699
vt 0.630232 0.741484
vt 0.630072 0.737698
vt 0.387301 0.741501
vt 0.383399 0.741623
vt 0.383499 0.737699
vt 0.380232 0.741484
vt 0.380072 0.737698
vt 0.366501 0.737699
vt 0.366623 0.741601
vt 0.362699 0.741501
vt 0.369928 0.737698
vt 0.369761 0.741474
vt 0.375000 0.737698
vt 0.375000 0.741484
vt 0.616501 0.237699
vt 0.616623 0.241601
vt 0.612698 0.241501
vt 0.619928 0.237699
vt 0.619761 0.241474
vt 0.625000 0.237699
vt 0.625000 0.241484
vt 0.862698 0.508499
vt 0.866601 0.508377
vt 0.866501 0.512302
vt 0.862699 0.741501
vt 0.866623 0.741601
vt 0.622036 0.008526
vt 0.619768 0.008516
vt 0.616601 0.008377
vt 0.612698 0.008499
vt 0.387302 0.008499
vt 0.383377 0.008399
vt 0.127964 0.741474
vt 0.130232 0.741484
vt 0.133399 0.741623
vt 0.137301 0.741501
vt 0.869768 0.508516
vt 0.869928 0.512302
vt 0.387301 0.241501
vt 0.383399 0.241623
vt 0.383499 0.237699
vt 0.380232 0.241484
vt 0.380072 0.237699
vt 0.133499 0.512302
vt 0.133377 0.508399
vt 0.137301 0.508499
vt 0.130072 0.512301
vt 0.130239 0.508526
vt 0.125000 0.512301
vt 0.125000 0.508516
vt 0.616501 0.012301
vt 0.619928 0.012301
vt 0.866501 0.737699
vt 0.869928 0.737698
vt 0.869761 0.741474
vt 0.622652 0.012301
vt 0.625000 0.012301
vt 0.625000 0.008516
vt 0.133499 0.737699
vt 0.130072 0.737698
vt 0.383499 0.012301
vt 0.380072 0.012301
vt 0.380239 0.008526
vt 0.127349 0.737699
vt 0.125000 0.737698
vt 0.125000 0.741484
vt 0.125000 0.737698
vt 0.625000 0.012301
vn -1.0000 0.0000 0.0000
vn 0.0000 1.0000 0.0000
vn 1.0000 -0.0000 0.0000
vn 0.0000 -1.0000 0.0000
vn 0.1945 -0.0196 -0.9807
vn 0.1857 -0.0580 -0.9809
vn 0.1581 -0.0949 -0.9829
vn 0.0331 -0.1181 -0.9925
vn 0.0966 -0.1114 -0.9891
vn -0.1945 -0.0196 -0.9807
vn -0.1843 -0.0575 -0.9812
vn -0.0331 -0.1181 -0.9925
vn -0.0975 -0.1124 -0.9889
vn -0.1581 -0.0949 -0.9829
vn 0.0331 -0.1181 0.9925
vn 0.0975 -0.1124 0.9889
vn 0.1581 -0.0949 0.9829
vn 0.1945 -0.0196 0.9807
vn 0.1843 -0.0575 0.9812
vn -0.0331 -0.1181 0.9925
vn -0.0966 -0.1114 0.9891
vn -0.1945 -0.0196 0.9807
vn -0.1857 -0.0580 0.9809
vn -0.1581 -0.0949 0.9829
vn 0.0331 0.1181 -0.9925
vn 0.0975 0.1124 -0.9889
vn 0.1581 0.0949 -0.9829
vn 0.1945 0.0196 -0.9807
vn 0.0000 0.0000 1.0000
vn 0.1843 0.0575 -0.9812
vn -0.0331 0.1181 -0.9925
vn -0.0966 0.1114 -0.9891
vn -0.1945 0.0196 -0.9807
vn -0.1857 0.0580 -0.9809
vn -0.1581 0.0949 -0.9829
vn 0.0000 0.0000 -1.0000
vn 0.0331 0.1181 0.9925
vn 0.0966 0.1114 0.9891
vn 0.1945 0.0196 0.9807
vn 0.1857 0.0580 0.9809
vn 0.1581 0.0949 0.9829
vn -0.1945 0.0196 0.9807
vn -0.1843 0.0575 0.9812
vn -0.0331 0.1181 0.9925
vn -0.0975 0.1124 0.9889
vn -0.1581 0.0949 0.9829
vn -0.9955 0.0946 0.0000
vn -0.9563 0.2923 0.0000
vn -0.8575 0.5145 0.0000
vn -0.6473 0.7623 0.0000
vn -0.2553 0.9669 0.0000
vn -0.2059 0.0000 -0.9786
vn 0.0000 -0.1253 -0.9921
vn 0.0000 0.1253 0.9921
vn 0.0000 -0.1253 0.9921
vn 0.0000 0.1253 -0.9921
vn 0.2059 -0.0000 0.9786
vn 0.9955 -0.0946 0.0000
vn 0.9563 -0.2923 0.0000
vn 0.8575 -0.5145 0.0000
vn 0.6473 -0.7623 0.0000
vn 0.2553 -0.9669 0.0000
vn -0.2059 0.0000 0.9786
vn 0.9955 0.0946 0.0000
vn 0.9563 0.2923 0.0000
vn 0.8575 0.5145 -0.0000
vn 0.6473 0.7623 0.0000
vn 0.2553 0.9669 0.0000
vn 0.2059 -0.0000 -0.9786
vn -0.9955 -0.0946 0.0000
vn -0.9563 -0.2923 0.0000
vn -0.8575 -0.5145 -0.0000
vn -0.6473 -0.7623 0.0000
vn -0.2553 -0.9669 0.0000
usemtl Material
s off
f 62/1/1 13/2/1 38/3/1 85/4/1
f 86/5/2 73/6/2 49/7/2 61/8/2
f 1/9/3 50/10/3 74/11/3 26/12/3
f 14/13/4 2/14/4 25/15/4 37/16/4
f 1/9/5 3/17/5 6/18/5 5/19/5
f 3/17/6 4/20/6 7/21/6 6/18/6
f 4/20/7 11/22/7 12/23/7 7/21/7
f 2/14/8 8/24/8 10/25/8 9/26/8
f 9/26/9 10/25/9 12/27/9 11/28/9
f 13/2/10 15/29/10 17/30/10 16/31/10
f 16/31/11 17/30/11 19/32/11 18/33/11
f 14/13/12 20/34/12 23/35/12 22/36/12
f 20/34/13 21/37/13 24/38/13 23/35/13
f 21/37/14 18/39/14 19/40/14 24/38/14
f 25/15/15 27/41/15 30/42/15 29/43/15
f 27/41/16 28/44/16 31/45/16 30/42/16
f 28/44/17 35/46/17 36/47/17 31/45/17
f 26/12/18 32/48/18 34/49/18 33/50/18
f 33/50/19 34/49/19 36/51/19 35/52/19
f 37/16/20 39/53/20 41/54/20 40/55/20
f 40/55/21 41/54/21 43/56/21 42/57/21
f 38/3/22 44/58/22 47/59/22 46/60/22
f 44/58/23 45/61/23 48/62/23 47/59/23
f 45/61/24 42/63/24 43/64/24 48/62/24
f 49/7/25 51/65/25 54/66/25 53/67/25
f 51/65/26 52/68/26 55/69/26 54/66/26
f 52/68/27 59/70/27 60/71/27 55/69/27
f 50/10/28 56/72/28 58/73/28 57/74/28
f 39/53/29 29/43/29 30/42/29 31/45/29 36/51/29 34/49/29 32/48/29 82/75/29 83/76/29 84/77/29 79/78/29 77/79/29 75/80/29 94/81/29 95/82/29 96/83/29 91/84/29 89/85/29 87/86/29 46/60/29 47/59/29 48/62/29 43/56/29 41/54/29
f 57/74/30 58/73/30 60/87/30 59/88/30
f 61/8/31 63/89/31 65/90/31 64/91/31
f 64/91/32 65/90/32 67/92/32 66/93/32
f 62/1/33 68/94/33 71/95/33 70/96/33
f 68/94/34 69/97/34 72/98/34 71/95/34
f 69/97/35 66/99/35 67/100/35 72/98/35
f 5/19/36 6/18/36 7/21/36 12/27/36 10/25/36 8/24/36 22/36/36 23/35/36 24/38/36 19/32/36 17/30/36 15/29/36 70/96/36 71/95/36 72/98/36 67/92/36 65/90/36 63/89/36 53/67/36 54/66/36 55/69/36 60/87/36 58/73/36 56/72/36
f 73/6/37 75/80/37 77/79/37 76/101/37
f 76/101/38 77/79/38 79/78/38 78/102/38
f 74/11/39 80/103/39 83/76/39 82/75/39
f 80/103/40 81/104/40 84/105/40 83/76/40
f 81/106/41 78/107/41 79/108/41 84/77/41
f 85/4/42 87/86/42 89/85/42 88/109/42
f 88/109/43 89/85/43 91/84/43 90/110/43
f 86/5/44 92/111/44 95/82/44 94/81/44
f 92/111/45 93/112/45 96/113/45 95/82/45
f 93/114/46 90/115/46 91/116/46 96/83/46
f 62/1/47 85/4/47 88/109/47 68/94/47
f 68/94/48 88/109/48 90/110/48 69/97/48
f 69/97/49 90/110/49 93/117/49 66/99/49
f 66/93/50 93/112/50 92/111/50 64/91/50
f 64/91/51 92/111/51 86/5/51 61/8/51
f 13/2/52 62/1/52 70/96/52 15/29/52
f 2/14/53 14/13/53 22/36/53 8/24/53
f 94/81/54 75/80/54 73/6/54 86/5/54
f 29/43/55 39/53/55 37/16/55 25/15/55
f 53/67/56 63/89/56 61/8/56 49/7/56
f 26/12/57 74/11/57 82/75/57 32/48/57
f 1/9/58 26/12/58 33/50/58 3/17/58
f 3/17/59 33/50/59 35/52/59 4/20/59
f 4/20/60 35/52/60 28/44/60 11/28/60
f 11/28/61 28/44/61 27/41/61 9/26/61
f 9/26/62 27/41/62 25/15/62 2/14/62
f 85/4/63 38/3/63 46/60/63 87/86/63
f 74/11/64 50/10/64 57/74/64 80/103/64
f 80/103/65 57/74/65 59/88/65 81/104/65
f 81/118/66 59/70/66 52/68/66 78/102/66
f 78/102/67 52/68/67 51/65/67 76/101/67
f 76/101/68 51/65/68 49/7/68 73/6/68
f 50/10/69 1/9/69 5/19/69 56/72/69
f 38/3/70 13/2/70 16/31/70 44/58/70
f 44/58/71 16/31/71 18/33/71 45/61/71
f 45/61/72 18/33/72 21/37/72 42/57/72
f 42/57/73 21/37/73 20/34/73 40/55/73
f 40/55/74 20/34/74 14/13/74 37/16/74
